REM DIRINDEX 1\2,1\3,1\4,1\5,1\6
REM DIRNAME folder01,folder02,folder03,folder04,folder05,folder06
TITLE ""
FILE "Disc4Track34.mp3" MP3
  TRACK 01 AUDIO
    TITLE "3:cjc030_06999"
    INDEX 01 00:00:00
  TRACK 02 AUDIO
    TITLE "0:"
    INDEX 01 00:01:13
  TRACK 03 AUDIO
    TITLE "4:cjc030_07000"
    INDEX 01 00:01:22
  TRACK 04 AUDIO
    TITLE "0:"
    INDEX 01 00:02:26
  TRACK 05 AUDIO
    TITLE "5:cjc030_07001"
    INDEX 01 00:02:36
  TRACK 06 AUDIO
    TITLE "0:"
    INDEX 01 00:03:47
  TRACK 07 AUDIO
    TITLE "6:cjc030_07002"
    INDEX 01 00:03:63
  TRACK 08 AUDIO
    TITLE "0:"
    INDEX 01 00:06:14
  TRACK 09 AUDIO
    TITLE "3:cjc030_07003"
    INDEX 01 00:06:65
  TRACK 10 AUDIO
    TITLE "0:"
    INDEX 01 00:08:01
  TRACK 11 AUDIO
    TITLE "4:cjc030_07004"
    INDEX 01 00:08:09
  TRACK 12 AUDIO
    TITLE "0:"
    INDEX 01 00:09:67
  TRACK 13 AUDIO
    TITLE "5:cjc030_07005"
    INDEX 01 00:10:00
  TRACK 14 AUDIO
    TITLE "0:"
    INDEX 01 00:11:09
  TRACK 15 AUDIO
    TITLE "6:cjc030_07006"
    INDEX 01 00:11:23
  TRACK 16 AUDIO
    TITLE "0:"
    INDEX 01 00:12:50
  TRACK 17 AUDIO
    TITLE "3:cjc030_07007"
    INDEX 01 00:13:24
  TRACK 18 AUDIO
    TITLE "0:"
    INDEX 01 00:14:43
  TRACK 19 AUDIO
    TITLE "4:cjc030_07008"
    INDEX 01 00:14:51
  TRACK 20 AUDIO
    TITLE "0:"
    INDEX 01 00:15:64
  TRACK 21 AUDIO
    TITLE "5:cjc030_07009"
    INDEX 01 00:15:72
  TRACK 22 AUDIO
    TITLE "0:"
    INDEX 01 00:17:14
  TRACK 23 AUDIO
    TITLE "3:cjc030_07010"
    INDEX 01 00:17:69
  TRACK 24 AUDIO
    TITLE "0:"
    INDEX 01 00:19:16
  TRACK 25 AUDIO
    TITLE "4:cjc030_07011"
    INDEX 01 00:19:24
  TRACK 26 AUDIO
    TITLE "0:"
    INDEX 01 00:20:30
  TRACK 27 AUDIO
    TITLE "5:cjc030_07012"
    INDEX 01 00:20:39
  TRACK 28 AUDIO
    TITLE "0:"
    INDEX 01 00:21:60
  TRACK 29 AUDIO
    TITLE "6:cjc030_07013"
    INDEX 01 00:21:72
  TRACK 30 AUDIO
    TITLE "0:"
    INDEX 01 00:24:18
  TRACK 31 AUDIO
    TITLE "3:cjc030_07014"
    INDEX 01 00:24:65
  TRACK 32 AUDIO
    TITLE "0:"
    INDEX 01 00:26:13
  TRACK 33 AUDIO
    TITLE "4:cjc030_07015"
    INDEX 01 00:26:22
  TRACK 34 AUDIO
    TITLE "0:"
    INDEX 01 00:27:20
  TRACK 35 AUDIO
    TITLE "5:cjc030_07016"
    INDEX 01 00:27:30
  TRACK 36 AUDIO
    TITLE "0:"
    INDEX 01 00:28:51
  TRACK 37 AUDIO
    TITLE "3:cjc030_07017"
    INDEX 01 00:29:36
  TRACK 38 AUDIO
    TITLE "0:"
    INDEX 01 00:30:42
  TRACK 39 AUDIO
    TITLE "4:cjc030_07018"
    INDEX 01 00:30:54
  TRACK 40 AUDIO
    TITLE "0:"
    INDEX 01 00:31:55
  TRACK 41 AUDIO
    TITLE "5:cjc030_07019"
    INDEX 01 00:31:63
  TRACK 42 AUDIO
    TITLE "0:"
    INDEX 01 00:32:72
  TRACK 43 AUDIO
    TITLE "6:cjc030_07020"
    INDEX 01 00:33:07
  TRACK 44 AUDIO
    TITLE "0:"
    INDEX 01 00:34:51
  TRACK 45 AUDIO
    TITLE "3:cjc030_07021"
    INDEX 01 00:35:23
  TRACK 46 AUDIO
    TITLE "0:"
    INDEX 01 00:36:42
  TRACK 47 AUDIO
    TITLE "4:cjc030_07022"
    INDEX 01 00:36:50
  TRACK 48 AUDIO
    TITLE "0:"
    INDEX 01 00:37:38
  TRACK 49 AUDIO
    TITLE "5:cjc030_07023"
    INDEX 01 00:37:48
  TRACK 50 AUDIO
    TITLE "0:"
    INDEX 01 00:38:63
  TRACK 51 AUDIO
    TITLE "6:cjc030_07024"
    INDEX 01 00:39:02
  TRACK 52 AUDIO
    TITLE "0:"
    INDEX 01 00:41:42
  TRACK 53 AUDIO
    TITLE "3:cjc030_07025"
    INDEX 01 00:42:14
  TRACK 54 AUDIO
    TITLE "0:"
    INDEX 01 00:43:17
  TRACK 55 AUDIO
    TITLE "4:cjc030_07026"
    INDEX 01 00:43:23
  TRACK 56 AUDIO
    TITLE "0:"
    INDEX 01 00:44:28
  TRACK 57 AUDIO
    TITLE "5:cjc030_07027"
    INDEX 01 00:44:36
  TRACK 58 AUDIO
    TITLE "0:"
    INDEX 01 00:45:39
  TRACK 59 AUDIO
    TITLE "6:cjc030_07028"
    INDEX 01 00:45:51
  TRACK 60 AUDIO
    TITLE "0:"
    INDEX 01 00:48:08
